<?xml version="1.0" encoding="UTF-8" standalone="no" ?>
<!DOCTYPE svg PUBLIC "-//W3C//DTD SVG 1.1//EN" "http://www.w3.org/Graphics/SVG/1.1/DTD/svg11.dtd">
<svg xmlns="http://www.w3.org/2000/svg" xmlns:xlink="http://www.w3.org/1999/xlink" version="1.1" width="576" height="512" viewBox="-252 -284 576 512" xml:space="preserve">
<desc>Created with Fabric.js 5.2.4</desc>
<defs>
</defs>
<rect x="0" y="0" width="100%" height="100%" fill="transparent"></rect>
<g transform="matrix(1 0 0 1 288 256)" id="d8643ed4-49eb-4b3c-8861-de84cf7cf7bd"  >
<rect style="stroke: none; stroke-width: 1; stroke-dasharray: none; stroke-linecap: butt; stroke-dashoffset: 0; stroke-linejoin: miter; stroke-miterlimit: 4; fill: rgb(255,255,255); fill-rule: nonzero; opacity: 1; visibility: hidden;" vector-effect="non-scaling-stroke"  x="-288" y="-256" rx="0" ry="0" width="576" height="512" />
</g>
<g transform="matrix(Infinity NaN NaN Infinity 0 0)" id="1c9ccd02-766d-4881-8ab1-d496c776b030"  >
</g>
<g transform="matrix(-0.5 0 0 0.52 41.29 -27.67)"  >
<g style="" vector-effect="non-scaling-stroke"   >
		<g transform="matrix(0.86 0 0 0.86 -131.4 -8.35)"  >
<path style="stroke: none; stroke-width: 1; stroke-dasharray: none; stroke-linecap: butt; stroke-dashoffset: 0; stroke-linejoin: miter; stroke-miterlimit: 4; fill: rgb(255,255,255); fill-rule: nonzero; opacity: 1;" vector-effect="non-scaling-stroke"  transform=" translate(-311.44, -454.12)" d="M 158.56 618.97 L 160.96 618.27 C 257.96000000000004 592.071 342.56 558.47 412.15999999999997 518.47 C 506.65999999999997 464.17 571.56 398.97 605.16 324.67100000000005 L 621.16 289.2710000000001 L 592.461 315.47100000000006 C 535.461 367.5710000000001 457.66 406.47100000000006 361.06100000000004 431.2710000000001 C 279.16100000000006 452.2710000000001 185.06100000000004 462.97100000000006 81.26100000000002 462.97100000000006 C 75.86100000000002 462.97100000000006 63.861000000000026 462.87100000000004 56.66100000000002 462.7710000000001 L 39.761000000000024 461.97100000000006 C 26.461000000000023 461.37100000000004 14.361000000000026 469.5710000000001 9.961000000000023 482.17100000000005 L 3.3610000000000237 501.2710000000001 C -0.5389999999999762 512.5720000000001 2.6610000000000236 525.171 11.561000000000023 533.2710000000001 C 18.961000000000023 539.9710000000001 26.461000000000023 546.4710000000001 26.461000000000023 546.4710000000001 C 26.461000000000023 546.4710000000001 82.46100000000003 594.9710000000001 156.061 618.1710000000002 L 158.56 618.97 z" stroke-linecap="round" />
</g>
		<g transform="matrix(0.86 0 0 0.86 119.09 0)"  >
<path style="stroke: none; stroke-width: 1; stroke-dasharray: none; stroke-linecap: butt; stroke-dashoffset: 0; stroke-linejoin: miter; stroke-miterlimit: 4; fill: rgb(255,255,255); fill-rule: nonzero; opacity: 1;" vector-effect="non-scaling-stroke"  transform=" translate(-601.89, -463.8)" d="M 811.86 163.17 C 782.76 149.76999999999998 754.961 147.76999999999998 740.961 147.76999999999998 C 739.16 147.76999999999998 737.461 147.76999999999998 736.061 147.86999999999998 C 732.861 136.67 716.6610000000001 69.76999999999998 705.361 22.96999999999997 C 700.161 1.4699999999999704 674.261 -7.230000000000029 657.161 6.869999999999969 L 603.5609999999999 51.06999999999997 C 589.5609999999999 62.56999999999997 586.661 82.76999999999997 596.8609999999999 97.76999999999998 C 619.2609999999999 130.67 656.3609999999999 189.46999999999997 674.5609999999999 242.57 C 691.761 292.87 693.261 345.47 685.0609999999999 397.16999999999996 C 671.661 480.86999999999995 627.4609999999999 565.3699999999999 553.661 648.3699999999999 C 513.462 693.5699999999999 468.96199999999993 734.7689999999999 421.46199999999993 772.0699999999999 C 397.66099999999994 790.7689999999999 373.06199999999995 808.4689999999999 347.76199999999994 825.0699999999999 C 345.16099999999994 826.7689999999999 315.06199999999995 844.4689999999999 294.16099999999994 855.2689999999999 C 282.46199999999993 861.2689999999999 276.0609999999999 874.2689999999999 278.36099999999993 887.1689999999999 L 280.86099999999993 901.1689999999999 C 283.2609999999999 914.5689999999998 294.36099999999993 924.6689999999999 307.86099999999993 925.7689999999999 C 342.16099999999994 928.6689999999999 412.96199999999993 930.5699999999999 507.5609999999999 911.8699999999999 C 559.3609999999999 901.6699999999998 609.3609999999999 877.3699999999999 655.761 849.7689999999999 C 733.861 803.1689999999999 838.5609999999999 718.3699999999999 893.861 578.7689999999999 C 918.561 516.4689999999999 929.061 452.0699999999999 925.061 387.1699999999999 C 921.1610000000001 323.3699999999999 904.361 274.76999999999987 890.961 245.1699999999999 C 873.66 206.771 847.06 179.271 811.86 163.17 z" stroke-linecap="round" />
</g>
		<g transform="matrix(0.86 0 0 0.86 -79.73 91.09)"  >
<path style="stroke: none; stroke-width: 1; stroke-dasharray: none; stroke-linecap: butt; stroke-dashoffset: 0; stroke-linejoin: miter; stroke-miterlimit: 4; fill: rgb(255,255,255); fill-rule: nonzero; opacity: 1;" vector-effect="non-scaling-stroke"  transform=" translate(-371.36, -569.42)" d="M 109.46 744.97 C 122.55999999999999 753.071 143.85999999999999 764.77 169.76 773.37 C 214.26 788.17 261.56 794.57 308.26 796.07 L 310.86 796.1700000000001 L 312.961 794.7700000000001 C 347.461 771.6700000000001 380.261 747.4700000000001 410.56100000000004 722.8710000000001 C 448.261 692.171 482.06100000000004 660.671 511.06100000000004 629.2700000000001 C 537.361 600.7700000000001 561.6610000000001 570.3710000000001 582.461 537.6700000000001 C 600.66 509.07000000000005 616.16 478.57000000000005 627.261 446.4700000000001 C 632.461 431.4700000000001 636.761 416.0710000000001 639.66 400.37000000000006 C 642.66 384.4700000000001 644.06 368.27000000000004 646.16 352.1700000000001 C 646.56 348.9700000000001 646.961 345.87000000000006 647.36 342.6700000000001 L 627.461 376.57000000000005 C 585.761 447.76900000000006 516.961 510.26900000000006 422.86 562.57 C 361.66 596.6700000000001 296.06 622.6700000000001 229.26000000000002 643.769 C 192.86 655.269 157.66000000000003 665.37 120.66000000000003 671.07 C 106.06000000000003 673.269 95.36000000000003 685.87 95.36000000000003 700.6700000000001 C 95.36000000000003 707.07 95.36000000000003 713.7700000000001 95.36000000000003 719.57 C 95.36 729.87 100.66 739.47 109.46 744.97 z" stroke-linecap="round" />
</g>
</g>
</g>
</svg>